<mxfile host="app.diagrams.net" agent="Mozilla/5.0 (Windows NT 10.0; Win64; x64) AppleWebKit/537.36 (KHTML, like Gecko) Chrome/129.0.0.0 Safari/537.36" version="24.7.5" pages="5">
  <diagram id="Ht1M8jgEwFfnCIfOTk4-" name="Page-1">
    <mxGraphModel dx="2585" dy="1385" grid="1" gridSize="10" guides="1" tooltips="1" connect="1" arrows="1" fold="1" page="1" pageScale="1" pageWidth="1169" pageHeight="827" math="0" shadow="0">
      <root>
        <mxCell id="0" />
        <mxCell id="1" parent="0" />
        <mxCell id="-QjtrjUzRDEMRZ5MF8oH-14" value="Amazon SageMaker" style="whiteSpace=wrap;html=1;fillColor=none;fontSize=14;fontColor=#000000;dashed=0;fontStyle=0;align=center;verticalAlign=top;strokeColor=#D86613;gradientColor=none;spacingLeft=0;labelPosition=center;verticalLabelPosition=bottom;container=1;pointerEvents=0;collapsible=0;recursiveResize=0;" parent="1" vertex="1">
          <mxGeometry x="872.5" y="174.5" width="232" height="160" as="geometry" />
        </mxCell>
        <mxCell id="SCVMTBWpLvtzJIhz15lM-34" value="" style="whiteSpace=wrap;html=1;fillColor=none;fontSize=14;fontColor=#000000;dashed=0;fontStyle=0;align=center;verticalAlign=top;strokeColor=#CCCCCC;gradientColor=none;spacingLeft=0;labelPosition=center;verticalLabelPosition=bottom;" parent="1" vertex="1">
          <mxGeometry x="882.5" y="257.5" width="210" height="70" as="geometry" />
        </mxCell>
        <mxCell id="-QjtrjUzRDEMRZ5MF8oH-1" value="" style="outlineConnect=0;fontColor=#232F3E;gradientColor=none;fillColor=#277116;strokeColor=none;dashed=0;verticalLabelPosition=bottom;verticalAlign=top;align=center;html=1;fontSize=12;fontStyle=0;aspect=fixed;pointerEvents=1;shape=mxgraph.aws4.door_lock;" parent="1" vertex="1">
          <mxGeometry x="64.5" y="260.5" width="78" height="78" as="geometry" />
        </mxCell>
        <mxCell id="-QjtrjUzRDEMRZ5MF8oH-2" value="" style="outlineConnect=0;fontColor=#232F3E;gradientColor=none;fillColor=#277116;strokeColor=none;dashed=0;verticalLabelPosition=bottom;verticalAlign=top;align=center;html=1;fontSize=12;fontStyle=0;aspect=fixed;pointerEvents=1;shape=mxgraph.aws4.car;" parent="1" vertex="1">
          <mxGeometry x="64.5" y="356" width="78" height="78" as="geometry" />
        </mxCell>
        <mxCell id="-QjtrjUzRDEMRZ5MF8oH-3" value="" style="outlineConnect=0;fontColor=#232F3E;gradientColor=none;fillColor=#277116;strokeColor=none;dashed=0;verticalLabelPosition=bottom;verticalAlign=top;align=center;html=1;fontSize=12;fontStyle=0;aspect=fixed;pointerEvents=1;shape=mxgraph.aws4.camera;" parent="1" vertex="1">
          <mxGeometry x="64.5" y="451.5" width="78" height="78" as="geometry" />
        </mxCell>
        <mxCell id="-QjtrjUzRDEMRZ5MF8oH-4" value="" style="outlineConnect=0;fontColor=#232F3E;gradientColor=none;fillColor=#277116;strokeColor=none;dashed=0;verticalLabelPosition=bottom;verticalAlign=top;align=center;html=1;fontSize=12;fontStyle=0;aspect=fixed;pointerEvents=1;shape=mxgraph.aws4.utility;" parent="1" vertex="1">
          <mxGeometry x="165.5" y="306.5" width="78" height="78" as="geometry" />
        </mxCell>
        <mxCell id="-QjtrjUzRDEMRZ5MF8oH-5" value="" style="outlineConnect=0;fontColor=#232F3E;gradientColor=none;fillColor=#277116;strokeColor=none;dashed=0;verticalLabelPosition=bottom;verticalAlign=top;align=center;html=1;fontSize=12;fontStyle=0;aspect=fixed;pointerEvents=1;shape=mxgraph.aws4.coffee_pot;" parent="1" vertex="1">
          <mxGeometry x="166.5" y="410.5" width="78" height="78" as="geometry" />
        </mxCell>
        <mxCell id="-QjtrjUzRDEMRZ5MF8oH-6" value="" style="outlineConnect=0;fontColor=#232F3E;gradientColor=none;fillColor=#277116;strokeColor=none;dashed=0;verticalLabelPosition=bottom;verticalAlign=top;align=center;html=1;fontSize=12;fontStyle=0;aspect=fixed;pointerEvents=1;shape=mxgraph.aws4.lightbulb;" parent="1" vertex="1">
          <mxGeometry x="263.5" y="260.5" width="78" height="78" as="geometry" />
        </mxCell>
        <mxCell id="-QjtrjUzRDEMRZ5MF8oH-7" value="" style="outlineConnect=0;fontColor=#232F3E;gradientColor=none;fillColor=#277116;strokeColor=none;dashed=0;verticalLabelPosition=bottom;verticalAlign=top;align=center;html=1;fontSize=12;fontStyle=0;aspect=fixed;pointerEvents=1;shape=mxgraph.aws4.house;" parent="1" vertex="1">
          <mxGeometry x="261.5" y="356" width="78" height="78" as="geometry" />
        </mxCell>
        <mxCell id="-QjtrjUzRDEMRZ5MF8oH-8" value="" style="outlineConnect=0;fontColor=#232F3E;gradientColor=none;fillColor=#277116;strokeColor=none;dashed=0;verticalLabelPosition=bottom;verticalAlign=top;align=center;html=1;fontSize=12;fontStyle=0;aspect=fixed;pointerEvents=1;shape=mxgraph.aws4.thermostat;" parent="1" vertex="1">
          <mxGeometry x="261.5" y="451.5" width="78" height="78" as="geometry" />
        </mxCell>
        <mxCell id="-QjtrjUzRDEMRZ5MF8oH-9" value="1" style="rounded=1;whiteSpace=wrap;html=1;fillColor=#007CBD;strokeColor=none;fontColor=#FFFFFF;fontStyle=1;fontSize=22;" parent="1" vertex="1">
          <mxGeometry x="223.5" y="211.5" width="40" height="38" as="geometry" />
        </mxCell>
        <mxCell id="-QjtrjUzRDEMRZ5MF8oH-10" value="ML Model Executable" style="outlineConnect=0;fontColor=#232F3E;gradientColor=none;fillColor=#116D5B;strokeColor=none;dashed=0;verticalLabelPosition=bottom;verticalAlign=top;align=center;html=1;fontSize=12;fontStyle=0;aspect=fixed;pointerEvents=1;shape=mxgraph.aws4.sagemaker_model;" parent="1" vertex="1">
          <mxGeometry x="473.5" y="244.5" width="78" height="78" as="geometry" />
        </mxCell>
        <mxCell id="-QjtrjUzRDEMRZ5MF8oH-11" value="AWS Lambda Function" style="outlineConnect=0;fontColor=#232F3E;gradientColor=none;fillColor=#277116;strokeColor=none;dashed=0;verticalLabelPosition=bottom;verticalAlign=top;align=center;html=1;fontSize=12;fontStyle=0;aspect=fixed;pointerEvents=1;shape=mxgraph.aws4.lambda_function;" parent="1" vertex="1">
          <mxGeometry x="473.5" y="349.5" width="78" height="78" as="geometry" />
        </mxCell>
        <mxCell id="-QjtrjUzRDEMRZ5MF8oH-12" value="AWS IoT Greengrass Core" style="outlineConnect=0;fontColor=#232F3E;gradientColor=#60A337;gradientDirection=north;fillColor=#277116;strokeColor=#ffffff;dashed=0;verticalLabelPosition=bottom;verticalAlign=top;align=center;html=1;fontSize=12;fontStyle=0;aspect=fixed;shape=mxgraph.aws4.resourceIcon;resIcon=mxgraph.aws4.greengrass;" parent="1" vertex="1">
          <mxGeometry x="473.5" y="457.5" width="78" height="78" as="geometry" />
        </mxCell>
        <mxCell id="-QjtrjUzRDEMRZ5MF8oH-16" value="AWS IoT Core" style="outlineConnect=0;fontColor=#232F3E;gradientColor=#60A337;gradientDirection=north;fillColor=#277116;strokeColor=#ffffff;dashed=0;verticalLabelPosition=bottom;verticalAlign=top;align=center;html=1;fontSize=12;fontStyle=0;aspect=fixed;shape=mxgraph.aws4.resourceIcon;resIcon=mxgraph.aws4.internet_of_things;" parent="1" vertex="1">
          <mxGeometry x="745.5" y="451.5" width="78" height="78" as="geometry" />
        </mxCell>
        <mxCell id="-QjtrjUzRDEMRZ5MF8oH-17" value="AWS IoT Analytics" style="outlineConnect=0;fontColor=#232F3E;gradientColor=#60A337;gradientDirection=north;fillColor=#277116;strokeColor=#ffffff;dashed=0;verticalLabelPosition=bottom;verticalAlign=top;align=center;html=1;fontSize=12;fontStyle=0;aspect=fixed;shape=mxgraph.aws4.resourceIcon;resIcon=mxgraph.aws4.iot_analytics;" parent="1" vertex="1">
          <mxGeometry x="949.5" y="451.5" width="78" height="78" as="geometry" />
        </mxCell>
        <mxCell id="-QjtrjUzRDEMRZ5MF8oH-18" value="ML Model Executable" style="outlineConnect=0;fontColor=#232F3E;gradientColor=none;fillColor=#116D5B;strokeColor=none;dashed=0;verticalLabelPosition=bottom;verticalAlign=top;align=center;html=1;fontSize=12;fontStyle=0;aspect=fixed;pointerEvents=1;shape=mxgraph.aws4.sagemaker_model;" parent="1" vertex="1">
          <mxGeometry x="136.5" y="691.5" width="78" height="78" as="geometry" />
        </mxCell>
        <mxCell id="-QjtrjUzRDEMRZ5MF8oH-19" value="AWS IoT Greengrass Core" style="outlineConnect=0;fontColor=#232F3E;gradientColor=#60A337;gradientDirection=north;fillColor=#277116;strokeColor=#ffffff;dashed=0;verticalLabelPosition=bottom;verticalAlign=top;align=center;html=1;fontSize=12;fontStyle=0;aspect=fixed;shape=mxgraph.aws4.resourceIcon;resIcon=mxgraph.aws4.iot_core;" parent="1" vertex="1">
          <mxGeometry x="137.5" y="796" width="78" height="78" as="geometry" />
        </mxCell>
        <mxCell id="-QjtrjUzRDEMRZ5MF8oH-20" value="Video Camera" style="outlineConnect=0;fontColor=#232F3E;gradientColor=none;fillColor=#277116;strokeColor=none;dashed=0;verticalLabelPosition=bottom;verticalAlign=top;align=center;html=1;fontSize=12;fontStyle=0;aspect=fixed;pointerEvents=1;shape=mxgraph.aws4.camera;" parent="1" vertex="1">
          <mxGeometry x="137.5" y="903.5" width="78" height="78" as="geometry" />
        </mxCell>
        <mxCell id="-QjtrjUzRDEMRZ5MF8oH-21" value="AWS IoT Core" style="outlineConnect=0;fontColor=#232F3E;gradientColor=#60A337;gradientDirection=north;fillColor=#277116;strokeColor=#ffffff;dashed=0;verticalLabelPosition=bottom;verticalAlign=top;align=center;html=1;fontSize=12;fontStyle=0;aspect=fixed;shape=mxgraph.aws4.resourceIcon;resIcon=mxgraph.aws4.internet_of_things;" parent="1" vertex="1">
          <mxGeometry x="352.5" y="711.5" width="78" height="78" as="geometry" />
        </mxCell>
        <mxCell id="-QjtrjUzRDEMRZ5MF8oH-22" value="AWS IoT Analytics" style="outlineConnect=0;fontColor=#232F3E;gradientColor=#60A337;gradientDirection=north;fillColor=#277116;strokeColor=#ffffff;dashed=0;verticalLabelPosition=bottom;verticalAlign=top;align=center;html=1;fontSize=12;fontStyle=0;aspect=fixed;shape=mxgraph.aws4.resourceIcon;resIcon=mxgraph.aws4.iot_analytics;" parent="1" vertex="1">
          <mxGeometry x="532.5" y="708.5" width="78" height="78" as="geometry" />
        </mxCell>
        <mxCell id="-QjtrjUzRDEMRZ5MF8oH-23" value="AWS IoT Events" style="outlineConnect=0;fontColor=#232F3E;gradientColor=#60A337;gradientDirection=north;fillColor=#277116;strokeColor=#ffffff;dashed=0;verticalLabelPosition=bottom;verticalAlign=top;align=center;html=1;fontSize=12;fontStyle=0;aspect=fixed;shape=mxgraph.aws4.resourceIcon;resIcon=mxgraph.aws4.iot_events;" parent="1" vertex="1">
          <mxGeometry x="721.5" y="708.5" width="78" height="78" as="geometry" />
        </mxCell>
        <mxCell id="-QjtrjUzRDEMRZ5MF8oH-24" value="Amazon SNS" style="outlineConnect=0;fontColor=#232F3E;gradientColor=#F34482;gradientDirection=north;fillColor=#BC1356;strokeColor=#ffffff;dashed=0;verticalLabelPosition=bottom;verticalAlign=top;align=center;html=1;fontSize=12;fontStyle=0;aspect=fixed;shape=mxgraph.aws4.resourceIcon;resIcon=mxgraph.aws4.sns;" parent="1" vertex="1">
          <mxGeometry x="902.5" y="708.5" width="78" height="78" as="geometry" />
        </mxCell>
        <mxCell id="-QjtrjUzRDEMRZ5MF8oH-25" value="Amazon Kinesis&lt;br&gt;Video Streams&lt;br&gt;" style="outlineConnect=0;fontColor=#232F3E;gradientColor=#945DF2;gradientDirection=north;fillColor=#5A30B5;strokeColor=#ffffff;dashed=0;verticalLabelPosition=bottom;verticalAlign=top;align=center;html=1;fontSize=12;fontStyle=0;aspect=fixed;shape=mxgraph.aws4.resourceIcon;resIcon=mxgraph.aws4.kinesis_video_streams;" parent="1" vertex="1">
          <mxGeometry x="484.5" y="874.5" width="78" height="78" as="geometry" />
        </mxCell>
        <mxCell id="-QjtrjUzRDEMRZ5MF8oH-26" value="Mobile Application" style="outlineConnect=0;fontColor=#232F3E;gradientColor=#F54749;gradientDirection=north;fillColor=#C7131F;strokeColor=#ffffff;dashed=0;verticalLabelPosition=bottom;verticalAlign=top;align=center;html=1;fontSize=12;fontStyle=0;aspect=fixed;shape=mxgraph.aws4.resourceIcon;resIcon=mxgraph.aws4.mobile;" parent="1" vertex="1">
          <mxGeometry x="785.5" y="873.5" width="78" height="78" as="geometry" />
        </mxCell>
        <mxCell id="-QjtrjUzRDEMRZ5MF8oH-27" value="2" style="rounded=1;whiteSpace=wrap;html=1;fillColor=#007CBD;strokeColor=none;fontColor=#FFFFFF;fontStyle=1;fontSize=22;" parent="1" vertex="1">
          <mxGeometry x="483.5" y="164.5" width="40" height="38" as="geometry" />
        </mxCell>
        <mxCell id="-QjtrjUzRDEMRZ5MF8oH-28" value="3" style="rounded=1;whiteSpace=wrap;html=1;fillColor=#007CBD;strokeColor=none;fontColor=#FFFFFF;fontStyle=1;fontSize=22;" parent="1" vertex="1">
          <mxGeometry x="823.5" y="175.5" width="40" height="38" as="geometry" />
        </mxCell>
        <mxCell id="-QjtrjUzRDEMRZ5MF8oH-29" value="4" style="rounded=1;whiteSpace=wrap;html=1;fillColor=#007CBD;strokeColor=none;fontColor=#FFFFFF;fontStyle=1;fontSize=22;" parent="1" vertex="1">
          <mxGeometry x="633.5" y="399.5" width="40" height="38" as="geometry" />
        </mxCell>
        <mxCell id="-QjtrjUzRDEMRZ5MF8oH-30" value="5" style="rounded=1;whiteSpace=wrap;html=1;fillColor=#007CBD;strokeColor=none;fontColor=#FFFFFF;fontStyle=1;fontSize=22;" parent="1" vertex="1">
          <mxGeometry x="878.5" y="399.5" width="40" height="38" as="geometry" />
        </mxCell>
        <mxCell id="-QjtrjUzRDEMRZ5MF8oH-31" value="6" style="rounded=1;whiteSpace=wrap;html=1;fillColor=#007CBD;strokeColor=none;fontColor=#FFFFFF;fontStyle=1;fontSize=22;" parent="1" vertex="1">
          <mxGeometry x="136.5" y="608.5" width="40" height="38" as="geometry" />
        </mxCell>
        <mxCell id="-QjtrjUzRDEMRZ5MF8oH-32" value="7" style="rounded=1;whiteSpace=wrap;html=1;fillColor=#007CBD;strokeColor=none;fontColor=#FFFFFF;fontStyle=1;fontSize=22;" parent="1" vertex="1">
          <mxGeometry x="462.5" y="666.5" width="40" height="38" as="geometry" />
        </mxCell>
        <mxCell id="-QjtrjUzRDEMRZ5MF8oH-33" value="8" style="rounded=1;whiteSpace=wrap;html=1;fillColor=#007CBD;strokeColor=none;fontColor=#FFFFFF;fontStyle=1;fontSize=22;" parent="1" vertex="1">
          <mxGeometry x="832.5" y="666.5" width="40" height="38" as="geometry" />
        </mxCell>
        <mxCell id="-QjtrjUzRDEMRZ5MF8oH-34" value="9" style="rounded=1;whiteSpace=wrap;html=1;fillColor=#007CBD;strokeColor=none;fontColor=#FFFFFF;fontStyle=1;fontSize=22;" parent="1" vertex="1">
          <mxGeometry x="352.5" y="854.5" width="40" height="38" as="geometry" />
        </mxCell>
        <mxCell id="-QjtrjUzRDEMRZ5MF8oH-35" value="10" style="rounded=1;whiteSpace=wrap;html=1;fillColor=#007CBD;strokeColor=none;fontColor=#FFFFFF;fontStyle=1;fontSize=22;" parent="1" vertex="1">
          <mxGeometry x="652.5" y="854.5" width="40" height="38" as="geometry" />
        </mxCell>
        <mxCell id="-QjtrjUzRDEMRZ5MF8oH-47" value="Title text" style="text;html=1;resizable=0;points=[];autosize=1;align=left;verticalAlign=top;spacingTop=-4;fontSize=30;fontStyle=1" parent="1" vertex="1">
          <mxGeometry x="56.5" y="64.5" width="130" height="40" as="geometry" />
        </mxCell>
        <mxCell id="-QjtrjUzRDEMRZ5MF8oH-48" value="Subtitle text&lt;br style=&quot;font-size: 16px&quot;&gt;" style="text;html=1;resizable=0;points=[];autosize=1;align=left;verticalAlign=top;spacingTop=-4;fontSize=16;" parent="1" vertex="1">
          <mxGeometry x="56.5" y="114.5" width="100" height="20" as="geometry" />
        </mxCell>
        <mxCell id="-QjtrjUzRDEMRZ5MF8oH-49" value="Label" style="text;html=1;resizable=0;points=[];autosize=1;align=left;verticalAlign=top;spacingTop=-4;fontSize=16;fontStyle=1" parent="1" vertex="1">
          <mxGeometry x="84.5" y="164.5" width="50" height="20" as="geometry" />
        </mxCell>
        <mxCell id="SCVMTBWpLvtzJIhz15lM-1" value="" style="line;strokeWidth=2;html=1;fontSize=14;" parent="1" vertex="1">
          <mxGeometry x="52.5" y="139.5" width="1060" height="10" as="geometry" />
        </mxCell>
        <mxCell id="SCVMTBWpLvtzJIhz15lM-2" value="&lt;span&gt;Label&lt;/span&gt;" style="text;html=1;resizable=0;points=[];autosize=1;align=left;verticalAlign=top;spacingTop=-4;fontSize=14;fontStyle=1" parent="1" vertex="1">
          <mxGeometry x="442.5" y="216.5" width="50" height="20" as="geometry" />
        </mxCell>
        <mxCell id="SCVMTBWpLvtzJIhz15lM-3" value="" style="edgeStyle=orthogonalEdgeStyle;html=1;endArrow=open;elbow=vertical;startArrow=none;endFill=0;strokeColor=#545B64;rounded=0;fontSize=14;" parent="1" edge="1">
          <mxGeometry width="100" relative="1" as="geometry">
            <mxPoint x="354.5" y="394.5" as="sourcePoint" />
            <mxPoint x="404.5" y="394.5" as="targetPoint" />
          </mxGeometry>
        </mxCell>
        <mxCell id="SCVMTBWpLvtzJIhz15lM-5" value="" style="shape=curlyBracket;whiteSpace=wrap;html=1;rounded=1;fontSize=14;" parent="1" vertex="1">
          <mxGeometry x="415.5" y="248.5" width="20" height="290" as="geometry" />
        </mxCell>
        <mxCell id="SCVMTBWpLvtzJIhz15lM-17" value="&lt;span&gt;Label&lt;/span&gt;" style="edgeStyle=orthogonalEdgeStyle;html=1;endArrow=open;elbow=vertical;startArrow=none;endFill=0;strokeColor=#545B64;rounded=0;fontSize=14;strokeWidth=2;" parent="1" edge="1">
          <mxGeometry x="-0.037" y="20" width="100" relative="1" as="geometry">
            <mxPoint x="584.5" y="254.5" as="sourcePoint" />
            <mxPoint x="854.5" y="254.5" as="targetPoint" />
            <mxPoint as="offset" />
          </mxGeometry>
        </mxCell>
        <mxCell id="SCVMTBWpLvtzJIhz15lM-18" value="&lt;span&gt;Label&lt;/span&gt;" style="edgeStyle=orthogonalEdgeStyle;html=1;endArrow=none;elbow=vertical;startArrow=open;endFill=0;strokeColor=#545B64;rounded=0;fontSize=14;strokeWidth=2;startFill=0;" parent="1" edge="1">
          <mxGeometry x="-0.037" y="20" width="100" relative="1" as="geometry">
            <mxPoint x="582.5" y="318" as="sourcePoint" />
            <mxPoint x="852.5" y="318" as="targetPoint" />
            <mxPoint as="offset" />
          </mxGeometry>
        </mxCell>
        <mxCell id="SCVMTBWpLvtzJIhz15lM-19" value="&lt;span&gt;Label&lt;/span&gt;" style="edgeStyle=orthogonalEdgeStyle;html=1;endArrow=open;elbow=vertical;startArrow=none;endFill=0;strokeColor=#545B64;rounded=0;fontSize=14;strokeWidth=2;" parent="1" edge="1">
          <mxGeometry x="-0.037" y="20" width="100" relative="1" as="geometry">
            <mxPoint x="594.5000000000002" y="484.5" as="sourcePoint" />
            <mxPoint x="714.5" y="484.5" as="targetPoint" />
            <mxPoint as="offset" />
          </mxGeometry>
        </mxCell>
        <mxCell id="SCVMTBWpLvtzJIhz15lM-20" value="&lt;span&gt;Label&lt;/span&gt;" style="edgeStyle=orthogonalEdgeStyle;html=1;endArrow=open;elbow=vertical;startArrow=none;endFill=0;strokeColor=#545B64;rounded=0;fontSize=14;strokeWidth=2;" parent="1" edge="1">
          <mxGeometry x="-0.037" y="20" width="100" relative="1" as="geometry">
            <mxPoint x="838.5000000000002" y="487.5" as="sourcePoint" />
            <mxPoint x="924.5" y="487.5" as="targetPoint" />
            <mxPoint as="offset" />
          </mxGeometry>
        </mxCell>
        <mxCell id="SCVMTBWpLvtzJIhz15lM-21" value="Label" style="text;html=1;resizable=0;points=[];autosize=1;align=left;verticalAlign=top;spacingTop=-4;fontSize=16;fontStyle=1" parent="1" vertex="1">
          <mxGeometry x="66.5" y="576.5" width="50" height="20" as="geometry" />
        </mxCell>
        <mxCell id="SCVMTBWpLvtzJIhz15lM-22" value="&lt;span&gt;Label&lt;/span&gt;" style="text;html=1;resizable=0;points=[];autosize=1;align=left;verticalAlign=top;spacingTop=-4;fontSize=14;fontStyle=1" parent="1" vertex="1">
          <mxGeometry x="136.5" y="656.5" width="50" height="20" as="geometry" />
        </mxCell>
        <mxCell id="SCVMTBWpLvtzJIhz15lM-23" value="" style="shape=curlyBracket;whiteSpace=wrap;html=1;rounded=1;fontSize=14;" parent="1" vertex="1">
          <mxGeometry x="76.5" y="691.5" width="20" height="290" as="geometry" />
        </mxCell>
        <mxCell id="SCVMTBWpLvtzJIhz15lM-24" value="Video Events" style="edgeStyle=orthogonalEdgeStyle;html=1;endArrow=open;elbow=vertical;startArrow=none;endFill=0;strokeColor=#545B64;rounded=0;fontSize=14;strokeWidth=2;" parent="1" edge="1">
          <mxGeometry x="-0.037" y="20" width="100" relative="1" as="geometry">
            <mxPoint x="261.5" y="753.5" as="sourcePoint" />
            <mxPoint x="342.5" y="753.5" as="targetPoint" />
            <mxPoint as="offset" />
          </mxGeometry>
        </mxCell>
        <mxCell id="SCVMTBWpLvtzJIhz15lM-25" value="" style="edgeStyle=orthogonalEdgeStyle;html=1;endArrow=open;elbow=vertical;startArrow=none;endFill=0;strokeColor=#545B64;rounded=0;fontSize=14;strokeWidth=2;" parent="1" edge="1">
          <mxGeometry x="-0.037" y="20" width="100" relative="1" as="geometry">
            <mxPoint x="443" y="750" as="sourcePoint" />
            <mxPoint x="524" y="750" as="targetPoint" />
            <mxPoint as="offset" />
          </mxGeometry>
        </mxCell>
        <mxCell id="SCVMTBWpLvtzJIhz15lM-26" value="" style="edgeStyle=orthogonalEdgeStyle;html=1;endArrow=open;elbow=vertical;startArrow=none;endFill=0;strokeColor=#545B64;rounded=0;fontSize=14;strokeWidth=2;" parent="1" edge="1">
          <mxGeometry x="-0.037" y="20" width="100" relative="1" as="geometry">
            <mxPoint x="622.5" y="750" as="sourcePoint" />
            <mxPoint x="703.5" y="750" as="targetPoint" />
            <mxPoint as="offset" />
          </mxGeometry>
        </mxCell>
        <mxCell id="SCVMTBWpLvtzJIhz15lM-27" value="" style="edgeStyle=orthogonalEdgeStyle;html=1;endArrow=open;elbow=vertical;startArrow=none;endFill=0;strokeColor=#545B64;rounded=0;fontSize=14;strokeWidth=2;" parent="1" edge="1">
          <mxGeometry x="-0.037" y="20" width="100" relative="1" as="geometry">
            <mxPoint x="811.5" y="747.5" as="sourcePoint" />
            <mxPoint x="892.5" y="747.5" as="targetPoint" />
            <mxPoint as="offset" />
          </mxGeometry>
        </mxCell>
        <mxCell id="SCVMTBWpLvtzJIhz15lM-28" value="Video Stream" style="edgeStyle=orthogonalEdgeStyle;html=1;endArrow=open;elbow=vertical;startArrow=none;endFill=0;strokeColor=#545B64;rounded=0;fontSize=14;strokeWidth=2;" parent="1" edge="1">
          <mxGeometry x="0.0038" y="-11" width="100" relative="1" as="geometry">
            <mxPoint x="262" y="913" as="sourcePoint" />
            <mxPoint x="472.5" y="913.5" as="targetPoint" />
            <mxPoint as="offset" />
            <Array as="points">
              <mxPoint x="367.5" y="913.5" />
            </Array>
          </mxGeometry>
        </mxCell>
        <mxCell id="SCVMTBWpLvtzJIhz15lM-29" value="" style="edgeStyle=orthogonalEdgeStyle;html=1;endArrow=open;elbow=vertical;startArrow=none;endFill=0;strokeColor=#545B64;rounded=0;fontSize=14;strokeWidth=2;" parent="1" edge="1">
          <mxGeometry x="0.0038" y="-11" width="100" relative="1" as="geometry">
            <mxPoint x="575.0714285714287" y="913.2142857142858" as="sourcePoint" />
            <mxPoint x="762.5" y="913.5" as="targetPoint" />
            <mxPoint as="offset" />
            <Array as="points">
              <mxPoint x="680.5" y="913.5" />
            </Array>
          </mxGeometry>
        </mxCell>
        <mxCell id="SCVMTBWpLvtzJIhz15lM-30" value="Build" style="outlineConnect=0;gradientColor=none;fontColor=#545B64;strokeColor=none;fillColor=#879196;dashed=0;verticalLabelPosition=bottom;verticalAlign=top;align=center;html=1;fontSize=12;fontStyle=0;aspect=fixed;shape=mxgraph.aws4.illustration_devices;pointerEvents=1" parent="1" vertex="1">
          <mxGeometry x="962.5" y="179.5" width="52" height="38" as="geometry" />
        </mxCell>
        <mxCell id="SCVMTBWpLvtzJIhz15lM-31" value="Train" style="outlineConnect=0;gradientColor=none;fontColor=#545B64;strokeColor=none;fillColor=#879196;dashed=0;verticalLabelPosition=bottom;verticalAlign=top;align=center;html=1;fontSize=12;fontStyle=0;aspect=fixed;shape=mxgraph.aws4.illustration_devices;pointerEvents=1" parent="1" vertex="1">
          <mxGeometry x="892.5" y="267.5" width="52" height="38" as="geometry" />
        </mxCell>
        <mxCell id="SCVMTBWpLvtzJIhz15lM-32" value="Optimize" style="outlineConnect=0;gradientColor=none;fontColor=#545B64;strokeColor=none;fillColor=#879196;dashed=0;verticalLabelPosition=bottom;verticalAlign=top;align=center;html=1;fontSize=12;fontStyle=0;aspect=fixed;shape=mxgraph.aws4.illustration_devices;pointerEvents=1" parent="1" vertex="1">
          <mxGeometry x="1032.5" y="267.5" width="52" height="38" as="geometry" />
        </mxCell>
        <mxCell id="SCVMTBWpLvtzJIhz15lM-33" value="" style="edgeStyle=orthogonalEdgeStyle;html=1;endArrow=open;elbow=vertical;startArrow=none;endFill=0;strokeColor=#545B64;rounded=0;fontSize=14;" parent="1" edge="1">
          <mxGeometry width="100" relative="1" as="geometry">
            <mxPoint x="958.5" y="293.5" as="sourcePoint" />
            <mxPoint x="1018.5" y="293.5" as="targetPoint" />
          </mxGeometry>
        </mxCell>
        <mxCell id="SCVMTBWpLvtzJIhz15lM-35" value="" style="edgeStyle=orthogonalEdgeStyle;html=1;endArrow=open;elbow=vertical;startArrow=none;endFill=0;strokeColor=#545B64;rounded=0;fontSize=14;" parent="1" edge="1">
          <mxGeometry width="100" relative="1" as="geometry">
            <mxPoint x="992.5" y="236.46774193548387" as="sourcePoint" />
            <mxPoint x="992.5" y="256.4677419354839" as="targetPoint" />
          </mxGeometry>
        </mxCell>
        <mxCell id="7OVz4w7n9kzEPWy-4BBC-3" value="" style="rounded=0;whiteSpace=wrap;html=1;fillColor=#EAEDED;fontSize=22;fontColor=#FFFFFF;strokeColor=none;labelBackgroundColor=none;" parent="1" vertex="1">
          <mxGeometry x="1151" y="51" width="539" height="1220" as="geometry" />
        </mxCell>
        <mxCell id="7OVz4w7n9kzEPWy-4BBC-4" value="1" style="rounded=1;whiteSpace=wrap;html=1;fillColor=#007CBD;strokeColor=none;fontColor=#FFFFFF;fontStyle=1;fontSize=22;labelBackgroundColor=none;" parent="1" vertex="1">
          <mxGeometry x="1169" y="63" width="40" height="38" as="geometry" />
        </mxCell>
        <mxCell id="7OVz4w7n9kzEPWy-4BBC-5" value="2" style="rounded=1;whiteSpace=wrap;html=1;fillColor=#007CBD;strokeColor=none;fontColor=#FFFFFF;fontStyle=1;fontSize=22;labelBackgroundColor=none;" parent="1" vertex="1">
          <mxGeometry x="1167.5" y="185" width="40" height="38" as="geometry" />
        </mxCell>
        <mxCell id="7OVz4w7n9kzEPWy-4BBC-6" value="3" style="rounded=1;whiteSpace=wrap;html=1;fillColor=#007CBD;strokeColor=none;fontColor=#FFFFFF;fontStyle=1;fontSize=22;labelBackgroundColor=none;" parent="1" vertex="1">
          <mxGeometry x="1167.5" y="305" width="40" height="38" as="geometry" />
        </mxCell>
        <mxCell id="7OVz4w7n9kzEPWy-4BBC-7" value="4" style="rounded=1;whiteSpace=wrap;html=1;fillColor=#007CBD;strokeColor=none;fontColor=#FFFFFF;fontStyle=1;fontSize=22;labelBackgroundColor=none;" parent="1" vertex="1">
          <mxGeometry x="1167.5" y="419" width="40" height="38" as="geometry" />
        </mxCell>
        <mxCell id="7OVz4w7n9kzEPWy-4BBC-8" value="5" style="rounded=1;whiteSpace=wrap;html=1;fillColor=#007CBD;strokeColor=none;fontColor=#FFFFFF;fontStyle=1;fontSize=22;labelBackgroundColor=none;" parent="1" vertex="1">
          <mxGeometry x="1169" y="536" width="40" height="38" as="geometry" />
        </mxCell>
        <mxCell id="7OVz4w7n9kzEPWy-4BBC-9" value="6" style="rounded=1;whiteSpace=wrap;html=1;fillColor=#007CBD;strokeColor=none;fontColor=#FFFFFF;fontStyle=1;fontSize=22;labelBackgroundColor=none;" parent="1" vertex="1">
          <mxGeometry x="1170" y="651" width="40" height="38" as="geometry" />
        </mxCell>
        <mxCell id="7OVz4w7n9kzEPWy-4BBC-10" value="7" style="rounded=1;whiteSpace=wrap;html=1;fillColor=#007CBD;strokeColor=none;fontColor=#FFFFFF;fontStyle=1;fontSize=22;labelBackgroundColor=none;" parent="1" vertex="1">
          <mxGeometry x="1169.5" y="767" width="40" height="38" as="geometry" />
        </mxCell>
        <mxCell id="7OVz4w7n9kzEPWy-4BBC-11" value="8" style="rounded=1;whiteSpace=wrap;html=1;fillColor=#007CBD;strokeColor=none;fontColor=#FFFFFF;fontStyle=1;fontSize=22;labelBackgroundColor=none;" parent="1" vertex="1">
          <mxGeometry x="1170" y="885" width="40" height="38" as="geometry" />
        </mxCell>
        <mxCell id="7OVz4w7n9kzEPWy-4BBC-12" value="9" style="rounded=1;whiteSpace=wrap;html=1;fillColor=#007CBD;strokeColor=none;fontColor=#FFFFFF;fontStyle=1;fontSize=22;labelBackgroundColor=none;" parent="1" vertex="1">
          <mxGeometry x="1168" y="1005" width="40" height="38" as="geometry" />
        </mxCell>
        <mxCell id="7OVz4w7n9kzEPWy-4BBC-13" value="&lt;span&gt;Lorem ipsum dolor sit amet, consectetur adipiscing elit, sed do eiusmod tempor incididunt ut labore et dolore magna aliqua. Ut enim ad minim veniam, quis nostrud exercitation ullamco laboris nisi ut aliquip ex ea commodo consequat. Duis aute irure dolor in reprehenderit in voluptate velit esse cillum dolore eu fugiat nulla pariatur. Excepteur sint occaecat cupidatat non proident, sunt in culpa qui officia deserunt mollit anim id est laborum.&lt;/span&gt;&lt;br&gt;" style="text;html=1;align=left;verticalAlign=top;spacingTop=-4;fontSize=14;labelBackgroundColor=none;whiteSpace=wrap;" parent="1" vertex="1">
          <mxGeometry x="1220.5" y="62.5" width="449" height="118" as="geometry" />
        </mxCell>
        <mxCell id="7OVz4w7n9kzEPWy-4BBC-14" value="&lt;span&gt;Lorem ipsum dolor sit amet, consectetur adipiscing elit, sed do eiusmod tempor incididunt ut labore et dolore magna aliqua. Ut enim ad minim veniam, quis nostrud exercitation ullamco laboris nisi ut aliquip ex ea commodo consequat. Duis aute irure dolor in reprehenderit in voluptate velit esse cillum dolore eu fugiat nulla pariatur. Excepteur sint occaecat cupidatat non proident, sunt in culpa qui officia deserunt mollit anim id est laborum.&lt;/span&gt;&lt;br&gt;" style="text;html=1;align=left;verticalAlign=top;spacingTop=-4;fontSize=14;labelBackgroundColor=none;whiteSpace=wrap;" parent="1" vertex="1">
          <mxGeometry x="1219.5" y="185.5" width="450" height="115" as="geometry" />
        </mxCell>
        <mxCell id="7OVz4w7n9kzEPWy-4BBC-15" value="&lt;span&gt;Lorem ipsum dolor sit amet, consectetur adipiscing elit, sed do eiusmod tempor incididunt ut labore et dolore magna aliqua. Ut enim ad minim veniam, quis nostrud exercitation ullamco laboris nisi ut aliquip ex ea commodo consequat. Duis aute irure dolor in reprehenderit in voluptate velit esse cillum dolore eu fugiat nulla pariatur. Excepteur sint occaecat cupidatat non proident, sunt in culpa qui officia deserunt mollit anim id est laborum.&lt;/span&gt;&lt;br&gt;" style="text;html=1;align=left;verticalAlign=top;spacingTop=-4;fontSize=14;labelBackgroundColor=none;whiteSpace=wrap;" parent="1" vertex="1">
          <mxGeometry x="1219.5" y="303.5" width="450" height="117" as="geometry" />
        </mxCell>
        <mxCell id="7OVz4w7n9kzEPWy-4BBC-16" value="&lt;span&gt;Lorem ipsum dolor sit amet, consectetur adipiscing elit, sed do eiusmod tempor incididunt ut labore et dolore magna aliqua. Ut enim ad minim veniam, quis nostrud exercitation ullamco laboris nisi ut aliquip ex ea commodo consequat. Duis aute irure dolor in reprehenderit in voluptate velit esse cillum dolore eu fugiat nulla pariatur. Excepteur sint occaecat cupidatat non proident, sunt in culpa qui officia deserunt mollit anim id est laborum.&lt;/span&gt;&lt;br&gt;" style="text;html=1;align=left;verticalAlign=top;spacingTop=-4;fontSize=14;labelBackgroundColor=none;whiteSpace=wrap;" parent="1" vertex="1">
          <mxGeometry x="1219.5" y="419.5" width="450" height="121" as="geometry" />
        </mxCell>
        <mxCell id="7OVz4w7n9kzEPWy-4BBC-17" value="&lt;span&gt;Lorem ipsum dolor sit amet, consectetur adipiscing elit, sed do eiusmod tempor incididunt ut labore et dolore magna aliqua. Ut enim ad minim veniam, quis nostrud exercitation ullamco laboris nisi ut aliquip ex ea commodo consequat. Duis aute irure dolor in reprehenderit in voluptate velit esse cillum dolore eu fugiat nulla pariatur. Excepteur sint occaecat cupidatat non proident, sunt in culpa qui officia deserunt mollit anim id est laborum.&lt;/span&gt;&lt;br&gt;" style="text;html=1;align=left;verticalAlign=top;spacingTop=-4;fontSize=14;labelBackgroundColor=none;whiteSpace=wrap;" parent="1" vertex="1">
          <mxGeometry x="1220.5" y="536.5" width="449" height="114" as="geometry" />
        </mxCell>
        <mxCell id="7OVz4w7n9kzEPWy-4BBC-18" value="&lt;span&gt;Lorem ipsum dolor sit amet, consectetur adipiscing elit, sed do eiusmod tempor incididunt ut labore et dolore magna aliqua. Ut enim ad minim veniam, quis nostrud exercitation ullamco laboris nisi ut aliquip ex ea commodo consequat. Duis aute irure dolor in reprehenderit in voluptate velit esse cillum dolore eu fugiat nulla pariatur. Excepteur sint occaecat cupidatat non proident, sunt in culpa qui officia deserunt mollit anim id est laborum.&lt;/span&gt;&lt;br&gt;" style="text;html=1;align=left;verticalAlign=top;spacingTop=-4;fontSize=14;labelBackgroundColor=none;whiteSpace=wrap;" parent="1" vertex="1">
          <mxGeometry x="1220.5" y="652.5" width="450" height="118" as="geometry" />
        </mxCell>
        <mxCell id="7OVz4w7n9kzEPWy-4BBC-19" value="&lt;span&gt;Lorem ipsum dolor sit amet, consectetur adipiscing elit, sed do eiusmod tempor incididunt ut labore et dolore magna aliqua. Ut enim ad minim veniam, quis nostrud exercitation ullamco laboris nisi ut aliquip ex ea commodo consequat. Duis aute irure dolor in reprehenderit in voluptate velit esse cillum dolore eu fugiat nulla pariatur. Excepteur sint occaecat cupidatat non proident, sunt in culpa qui officia deserunt mollit anim id est laborum.&lt;/span&gt;&lt;br&gt;" style="text;html=1;align=left;verticalAlign=top;spacingTop=-4;fontSize=14;labelBackgroundColor=none;whiteSpace=wrap;" parent="1" vertex="1">
          <mxGeometry x="1220.5" y="767.5" width="449" height="113" as="geometry" />
        </mxCell>
        <mxCell id="7OVz4w7n9kzEPWy-4BBC-20" value="&lt;span&gt;Lorem ipsum dolor sit amet, consectetur adipiscing elit, sed do eiusmod tempor incididunt ut labore et dolore magna aliqua. Ut enim ad minim veniam, quis nostrud exercitation ullamco laboris nisi ut aliquip ex ea commodo consequat. Duis aute irure dolor in reprehenderit in voluptate velit esse cillum dolore eu fugiat nulla pariatur. Excepteur sint occaecat cupidatat non proident, sunt in culpa qui officia deserunt mollit anim id est laborum.&lt;/span&gt;&lt;br&gt;" style="text;html=1;align=left;verticalAlign=top;spacingTop=-4;fontSize=14;labelBackgroundColor=none;whiteSpace=wrap;" parent="1" vertex="1">
          <mxGeometry x="1220.5" y="886.5" width="449" height="124" as="geometry" />
        </mxCell>
        <mxCell id="7OVz4w7n9kzEPWy-4BBC-21" value="&lt;span&gt;Lorem ipsum dolor sit amet, consectetur adipiscing elit, sed do eiusmod tempor incididunt ut labore et dolore magna aliqua. Ut enim ad minim veniam, quis nostrud exercitation ullamco laboris nisi ut aliquip ex ea commodo consequat. Duis aute irure dolor in reprehenderit in voluptate velit esse cillum dolore eu fugiat nulla pariatur. Excepteur sint occaecat cupidatat non proident, sunt in culpa qui officia deserunt mollit anim id est laborum.&lt;/span&gt;&lt;br&gt;" style="text;html=1;align=left;verticalAlign=top;spacingTop=-4;fontSize=14;labelBackgroundColor=none;whiteSpace=wrap;" parent="1" vertex="1">
          <mxGeometry x="1220.5" y="1005.5" width="449" height="115" as="geometry" />
        </mxCell>
        <mxCell id="7OVz4w7n9kzEPWy-4BBC-22" value="10" style="rounded=1;whiteSpace=wrap;html=1;fillColor=#007CBD;strokeColor=none;fontColor=#FFFFFF;fontStyle=1;fontSize=22;labelBackgroundColor=none;" parent="1" vertex="1">
          <mxGeometry x="1169" y="1130.5" width="40" height="38" as="geometry" />
        </mxCell>
        <mxCell id="7OVz4w7n9kzEPWy-4BBC-23" value="&lt;span&gt;Lorem ipsum dolor sit amet, consectetur adipiscing elit, sed do eiusmod tempor incididunt ut labore et dolore magna aliqua. Ut enim ad minim veniam, quis nostrud exercitation ullamco laboris nisi ut aliquip ex ea commodo consequat. Duis aute irure dolor in reprehenderit in voluptate velit esse cillum dolore eu fugiat nulla pariatur. Excepteur sint occaecat cupidatat non proident, sunt in culpa qui officia deserunt mollit anim id est laborum.&lt;/span&gt;&lt;br&gt;" style="text;html=1;align=left;verticalAlign=top;spacingTop=-4;fontSize=14;labelBackgroundColor=none;whiteSpace=wrap;" parent="1" vertex="1">
          <mxGeometry x="1221.5" y="1131" width="449" height="115" as="geometry" />
        </mxCell>
      </root>
    </mxGraphModel>
  </diagram>
  <diagram id="c2_b6aw4kHHX2ECN4X9y" name="docker-based">
    <mxGraphModel dx="1122" dy="656" grid="1" gridSize="10" guides="1" tooltips="1" connect="1" arrows="1" fold="1" page="1" pageScale="1" pageWidth="850" pageHeight="1100" math="0" shadow="0">
      <root>
        <mxCell id="0" />
        <mxCell id="1" parent="0" />
        <mxCell id="BP86aMWb46LXMaDsUUhz-1" value="Client" style="whiteSpace=wrap;strokeWidth=2;" vertex="1" parent="1">
          <mxGeometry x="373" y="160" width="58" height="34" as="geometry" />
        </mxCell>
        <mxCell id="BP86aMWb46LXMaDsUUhz-2" value="API Gateway" style="whiteSpace=wrap;strokeWidth=2;" vertex="1" parent="1">
          <mxGeometry x="349" y="262" width="106" height="34" as="geometry" />
        </mxCell>
        <mxCell id="BP86aMWb46LXMaDsUUhz-3" value="Application Load Balancer" style="whiteSpace=wrap;strokeWidth=2;" vertex="1" parent="1">
          <mxGeometry x="300" y="364" width="203" height="34" as="geometry" />
        </mxCell>
        <mxCell id="BP86aMWb46LXMaDsUUhz-4" value="ECS Cluster" style="whiteSpace=wrap;strokeWidth=2;" vertex="1" parent="1">
          <mxGeometry x="440" y="466" width="97" height="34" as="geometry" />
        </mxCell>
        <mxCell id="BP86aMWb46LXMaDsUUhz-5" value="EC2 Instances/Fargate" style="whiteSpace=wrap;strokeWidth=2;" vertex="1" parent="1">
          <mxGeometry x="400" y="568" width="176" height="34" as="geometry" />
        </mxCell>
        <mxCell id="BP86aMWb46LXMaDsUUhz-6" value="ECR" style="whiteSpace=wrap;strokeWidth=2;" vertex="1" parent="1">
          <mxGeometry x="553" y="364" width="43" height="34" as="geometry" />
        </mxCell>
        <mxCell id="BP86aMWb46LXMaDsUUhz-7" value="DynamoDB/RDS" style="whiteSpace=wrap;strokeWidth=2;" vertex="1" parent="1">
          <mxGeometry x="425" y="670" width="126" height="34" as="geometry" />
        </mxCell>
        <mxCell id="BP86aMWb46LXMaDsUUhz-8" value="HTTP Request" style="curved=1;startArrow=none;endArrow=block;exitX=0.14;exitY=0.99;entryX=0.3;entryY=0;rounded=0;" edge="1" parent="1" source="BP86aMWb46LXMaDsUUhz-1" target="BP86aMWb46LXMaDsUUhz-2">
          <mxGeometry relative="1" as="geometry">
            <Array as="points">
              <mxPoint x="340" y="228" />
            </Array>
          </mxGeometry>
        </mxCell>
        <mxCell id="BP86aMWb46LXMaDsUUhz-9" value="Forward Request" style="curved=1;startArrow=none;endArrow=block;exitX=0.28;exitY=0.99;entryX=0.39;entryY=0;rounded=0;" edge="1" parent="1" source="BP86aMWb46LXMaDsUUhz-2" target="BP86aMWb46LXMaDsUUhz-3">
          <mxGeometry relative="1" as="geometry">
            <Array as="points">
              <mxPoint x="332" y="330" />
            </Array>
          </mxGeometry>
        </mxCell>
        <mxCell id="BP86aMWb46LXMaDsUUhz-10" value="Route Traffic" style="curved=1;startArrow=none;endArrow=block;exitX=0.5;exitY=0.99;entryX=0.2;entryY=0;rounded=0;" edge="1" parent="1" source="BP86aMWb46LXMaDsUUhz-3" target="BP86aMWb46LXMaDsUUhz-4">
          <mxGeometry relative="1" as="geometry">
            <Array as="points">
              <mxPoint x="402" y="432" />
            </Array>
          </mxGeometry>
        </mxCell>
        <mxCell id="BP86aMWb46LXMaDsUUhz-11" value="Run Containers" style="curved=1;startArrow=none;endArrow=block;exitX=0.49;exitY=0.99;entryX=0.5;entryY=0;rounded=0;" edge="1" parent="1" source="BP86aMWb46LXMaDsUUhz-4" target="BP86aMWb46LXMaDsUUhz-5">
          <mxGeometry relative="1" as="geometry">
            <Array as="points" />
          </mxGeometry>
        </mxCell>
        <mxCell id="BP86aMWb46LXMaDsUUhz-12" value="Pull Image" style="curved=1;startArrow=none;endArrow=block;exitX=0.49;exitY=0.99;entryX=0.79;entryY=0;rounded=0;" edge="1" parent="1" source="BP86aMWb46LXMaDsUUhz-6" target="BP86aMWb46LXMaDsUUhz-4">
          <mxGeometry relative="1" as="geometry">
            <Array as="points">
              <mxPoint x="574" y="432" />
            </Array>
          </mxGeometry>
        </mxCell>
        <mxCell id="BP86aMWb46LXMaDsUUhz-13" value="Read/Write" style="curved=1;startArrow=none;endArrow=block;exitX=0.5;exitY=0.99;entryX=0.5;entryY=0;rounded=0;" edge="1" parent="1" source="BP86aMWb46LXMaDsUUhz-5" target="BP86aMWb46LXMaDsUUhz-7">
          <mxGeometry relative="1" as="geometry">
            <Array as="points" />
          </mxGeometry>
        </mxCell>
        <mxCell id="BP86aMWb46LXMaDsUUhz-14" value="Return Response" style="curved=1;startArrow=none;endArrow=block;exitX=0.61;exitY=0;entryX=0.71;entryY=0.99;rounded=0;" edge="1" parent="1" source="BP86aMWb46LXMaDsUUhz-3" target="BP86aMWb46LXMaDsUUhz-2">
          <mxGeometry relative="1" as="geometry">
            <Array as="points">
              <mxPoint x="471" y="330" />
            </Array>
          </mxGeometry>
        </mxCell>
        <mxCell id="BP86aMWb46LXMaDsUUhz-15" value="HTTP Response" style="curved=1;startArrow=none;endArrow=block;exitX=0.69;exitY=0;entryX=0.84;entryY=0.99;rounded=0;" edge="1" parent="1" source="BP86aMWb46LXMaDsUUhz-2" target="BP86aMWb46LXMaDsUUhz-1">
          <mxGeometry relative="1" as="geometry">
            <Array as="points">
              <mxPoint x="463" y="228" />
            </Array>
          </mxGeometry>
        </mxCell>
        <mxCell id="BP86aMWb46LXMaDsUUhz-16" value="&lt;h3 style=&quot;box-sizing: border-box; border-width: 0px; border-style: solid; border-color: hsl(var(--border-100)); border-image: initial; --tw-border-spacing-x: 0; --tw-border-spacing-y: 0; --tw-translate-x: 0; --tw-translate-y: 0; --tw-rotate: 0; --tw-skew-x: 0; --tw-skew-y: 0; --tw-scale-x: 1; --tw-scale-y: 1; --tw-pan-x: ; --tw-pan-y: ; --tw-pinch-zoom: ; --tw-scroll-snap-strictness: proximity; --tw-gradient-from-position: ; --tw-gradient-via-position: ; --tw-gradient-to-position: ; --tw-ordinal: ; --tw-slashed-zero: ; --tw-numeric-figure: ; --tw-numeric-spacing: ; --tw-numeric-fraction: ; --tw-ring-inset: ; --tw-ring-offset-width: 0px; --tw-ring-offset-color: #fff; --tw-ring-color: hsl(var(--accent-secondary-100)/1); --tw-ring-offset-shadow: 0 0 #0000; --tw-ring-shadow: 0 0 #0000; --tw-shadow: 0 0 #0000; --tw-shadow-colored: 0 0 #0000; --tw-blur: ; --tw-brightness: ; --tw-contrast: ; --tw-grayscale: ; --tw-hue-rotate: ; --tw-invert: ; --tw-saturate: ; --tw-sepia: ; --tw-drop-shadow: ; --tw-backdrop-blur: ; --tw-backdrop-brightness: ; --tw-backdrop-contrast: ; --tw-backdrop-grayscale: ; --tw-backdrop-hue-rotate: ; --tw-backdrop-invert: ; --tw-backdrop-opacity: ; --tw-backdrop-saturate: ; --tw-backdrop-sepia: ; --tw-contain-size: ; --tw-contain-layout: ; --tw-contain-paint: ; --tw-contain-style: ; outline-color: hsl(var(--accent-main-100)); font-size: 0.875rem; margin: 0px; overflow: hidden; text-wrap: nowrap; text-overflow: ellipsis; padding-left: 0.25rem; font-family: var(--font-tiempos),ui-serif,Georgia,Cambria,&amp;quot;Times New Roman&amp;quot;,Times,serif; line-height: 1.25rem; --tw-text-opacity: 1; color: rgb(41, 38, 27); letter-spacing: -0.4px; text-align: start; background-color: rgb(248, 248, 247);&quot; class=&quot;text-text-100 font-tiempos truncate pl-1 text-sm&quot;&gt;&lt;u&gt;Docker-based Approach Diagram&lt;/u&gt;&lt;/h3&gt;" style="text;html=1;align=center;verticalAlign=middle;whiteSpace=wrap;rounded=0;" vertex="1" parent="1">
          <mxGeometry x="311" y="100" width="181" height="30" as="geometry" />
        </mxCell>
      </root>
    </mxGraphModel>
  </diagram>
  <diagram id="xf_cXFuFbpxxh0X6jfto" name="lambda-based">
    <mxGraphModel dx="2213" dy="797" grid="1" gridSize="10" guides="1" tooltips="1" connect="1" arrows="1" fold="1" page="1" pageScale="1" pageWidth="850" pageHeight="1100" math="0" shadow="0">
      <root>
        <mxCell id="0" />
        <mxCell id="1" parent="0" />
        <mxCell id="z9h7nvZSWNf4ttrRcIyF-1" value="Client" style="whiteSpace=wrap;strokeWidth=2;" vertex="1" parent="1">
          <mxGeometry x="-518" y="290" width="58" height="34" as="geometry" />
        </mxCell>
        <mxCell id="z9h7nvZSWNf4ttrRcIyF-2" value="API Gateway" style="whiteSpace=wrap;strokeWidth=2;" vertex="1" parent="1">
          <mxGeometry x="-541" y="392" width="106" height="34" as="geometry" />
        </mxCell>
        <mxCell id="z9h7nvZSWNf4ttrRcIyF-3" value="Lambda Function" style="whiteSpace=wrap;strokeWidth=2;" vertex="1" parent="1">
          <mxGeometry x="-485" y="494" width="138" height="34" as="geometry" />
        </mxCell>
        <mxCell id="z9h7nvZSWNf4ttrRcIyF-4" value="S3 Bucket" style="whiteSpace=wrap;strokeWidth=2;" vertex="1" parent="1">
          <mxGeometry x="-386" y="392" width="85" height="34" as="geometry" />
        </mxCell>
        <mxCell id="z9h7nvZSWNf4ttrRcIyF-5" value="DynamoDB/RDS" style="whiteSpace=wrap;strokeWidth=2;" vertex="1" parent="1">
          <mxGeometry x="-479" y="596" width="126" height="34" as="geometry" />
        </mxCell>
        <mxCell id="z9h7nvZSWNf4ttrRcIyF-6" value="HTTP Request" style="curved=1;startArrow=none;endArrow=block;exitX=0.16;exitY=0.99;entryX=0.3;entryY=0;rounded=0;" edge="1" parent="1" source="z9h7nvZSWNf4ttrRcIyF-1" target="z9h7nvZSWNf4ttrRcIyF-2">
          <mxGeometry relative="1" as="geometry">
            <Array as="points">
              <mxPoint x="-550" y="358" />
            </Array>
          </mxGeometry>
        </mxCell>
        <mxCell id="z9h7nvZSWNf4ttrRcIyF-7" value="Trigger" style="curved=1;startArrow=none;endArrow=block;exitX=0.49;exitY=0.99;entryX=0.33;entryY=0;rounded=0;" edge="1" parent="1" source="z9h7nvZSWNf4ttrRcIyF-2" target="z9h7nvZSWNf4ttrRcIyF-3">
          <mxGeometry relative="1" as="geometry">
            <Array as="points">
              <mxPoint x="-489" y="460" />
            </Array>
          </mxGeometry>
        </mxCell>
        <mxCell id="z9h7nvZSWNf4ttrRcIyF-8" value="Store ZIP" style="curved=1;startArrow=none;endArrow=block;exitX=0.5;exitY=0.99;entryX=0.67;entryY=0;rounded=0;" edge="1" parent="1" source="z9h7nvZSWNf4ttrRcIyF-4" target="z9h7nvZSWNf4ttrRcIyF-3">
          <mxGeometry relative="1" as="geometry">
            <Array as="points">
              <mxPoint x="-343" y="460" />
            </Array>
          </mxGeometry>
        </mxCell>
        <mxCell id="z9h7nvZSWNf4ttrRcIyF-9" value="Read/Write" style="curved=1;startArrow=none;endArrow=block;exitX=0.5;exitY=0.99;entryX=0.5;entryY=0;rounded=0;" edge="1" parent="1" source="z9h7nvZSWNf4ttrRcIyF-3" target="z9h7nvZSWNf4ttrRcIyF-5">
          <mxGeometry relative="1" as="geometry">
            <Array as="points" />
          </mxGeometry>
        </mxCell>
        <mxCell id="z9h7nvZSWNf4ttrRcIyF-10" value="HTTP Response" style="curved=1;startArrow=none;endArrow=block;exitX=0.69;exitY=0;entryX=0.86;entryY=0.99;rounded=0;" edge="1" parent="1" source="z9h7nvZSWNf4ttrRcIyF-2" target="z9h7nvZSWNf4ttrRcIyF-1">
          <mxGeometry relative="1" as="geometry">
            <Array as="points">
              <mxPoint x="-427" y="358" />
            </Array>
          </mxGeometry>
        </mxCell>
        <mxCell id="1EPckM7yu1MlgDiY1mo5-1" value="&lt;b&gt;&lt;u&gt;Lambda-based Approach Diagram&lt;/u&gt;&lt;/b&gt;" style="text;html=1;align=center;verticalAlign=middle;whiteSpace=wrap;rounded=0;" vertex="1" parent="1">
          <mxGeometry x="-613" y="190" width="260" height="30" as="geometry" />
        </mxCell>
      </root>
    </mxGraphModel>
  </diagram>
  <diagram id="26jVsKmkuac__oLHztp7" name="lambda-docker-based">
    <mxGraphModel dx="2213" dy="797" grid="1" gridSize="10" guides="1" tooltips="1" connect="1" arrows="1" fold="1" page="1" pageScale="1" pageWidth="850" pageHeight="1100" math="0" shadow="0">
      <root>
        <mxCell id="0" />
        <mxCell id="1" parent="0" />
        <mxCell id="9ghfEsz9j9PmfKLz80zD-2" value="Client" style="whiteSpace=wrap;strokeWidth=2;" vertex="1" parent="1">
          <mxGeometry x="-340" y="329" width="58" height="34" as="geometry" />
        </mxCell>
        <mxCell id="9ghfEsz9j9PmfKLz80zD-3" value="API Gateway" style="whiteSpace=wrap;strokeWidth=2;" vertex="1" parent="1">
          <mxGeometry x="-363" y="431" width="106" height="34" as="geometry" />
        </mxCell>
        <mxCell id="9ghfEsz9j9PmfKLz80zD-4" value="Lambda Service" style="whiteSpace=wrap;strokeWidth=2;" vertex="1" parent="1">
          <mxGeometry x="-323" y="533" width="128" height="34" as="geometry" />
        </mxCell>
        <mxCell id="9ghfEsz9j9PmfKLz80zD-5" value="ECR" style="whiteSpace=wrap;strokeWidth=2;" vertex="1" parent="1">
          <mxGeometry x="-160" y="431" width="43" height="34" as="geometry" />
        </mxCell>
        <mxCell id="9ghfEsz9j9PmfKLz80zD-6" value="Lambda Container Runtime" style="whiteSpace=wrap;strokeWidth=2;" vertex="1" parent="1">
          <mxGeometry x="-364" y="635" width="210" height="34" as="geometry" />
        </mxCell>
        <mxCell id="9ghfEsz9j9PmfKLz80zD-7" value="DynamoDB/RDS" style="whiteSpace=wrap;strokeWidth=2;" vertex="1" parent="1">
          <mxGeometry x="-322" y="737" width="126" height="34" as="geometry" />
        </mxCell>
        <mxCell id="9ghfEsz9j9PmfKLz80zD-8" value="HTTP Request" style="curved=1;startArrow=none;endArrow=block;exitX=0.16;exitY=0.99;entryX=0.3;entryY=0;rounded=0;" edge="1" parent="1" source="9ghfEsz9j9PmfKLz80zD-2" target="9ghfEsz9j9PmfKLz80zD-3">
          <mxGeometry relative="1" as="geometry">
            <Array as="points">
              <mxPoint x="-372" y="397" />
            </Array>
          </mxGeometry>
        </mxCell>
        <mxCell id="9ghfEsz9j9PmfKLz80zD-9" value="Trigger" style="curved=1;startArrow=none;endArrow=block;exitX=0.33;exitY=0.99;entryX=0.24;entryY=0;rounded=0;" edge="1" parent="1" source="9ghfEsz9j9PmfKLz80zD-3" target="9ghfEsz9j9PmfKLz80zD-4">
          <mxGeometry relative="1" as="geometry">
            <Array as="points">
              <mxPoint x="-362" y="499" />
            </Array>
          </mxGeometry>
        </mxCell>
        <mxCell id="9ghfEsz9j9PmfKLz80zD-10" value="Pull Image" style="curved=1;startArrow=none;endArrow=block;exitX=0.5;exitY=0.99;entryX=0.81;entryY=0;rounded=0;" edge="1" parent="1" source="9ghfEsz9j9PmfKLz80zD-5" target="9ghfEsz9j9PmfKLz80zD-4">
          <mxGeometry relative="1" as="geometry">
            <Array as="points">
              <mxPoint x="-139" y="499" />
            </Array>
          </mxGeometry>
        </mxCell>
        <mxCell id="9ghfEsz9j9PmfKLz80zD-11" value="Execute Function" style="curved=1;startArrow=none;endArrow=block;exitX=0.5;exitY=0.99;entryX=0.5;entryY=0;rounded=0;" edge="1" parent="1" source="9ghfEsz9j9PmfKLz80zD-4" target="9ghfEsz9j9PmfKLz80zD-6">
          <mxGeometry relative="1" as="geometry">
            <Array as="points" />
          </mxGeometry>
        </mxCell>
        <mxCell id="9ghfEsz9j9PmfKLz80zD-12" value="Read/Write" style="curved=1;startArrow=none;endArrow=block;exitX=0.5;exitY=0.99;entryX=0.5;entryY=0;rounded=0;" edge="1" parent="1" source="9ghfEsz9j9PmfKLz80zD-6" target="9ghfEsz9j9PmfKLz80zD-7">
          <mxGeometry relative="1" as="geometry">
            <Array as="points" />
          </mxGeometry>
        </mxCell>
        <mxCell id="9ghfEsz9j9PmfKLz80zD-13" value="Return Response" style="curved=1;startArrow=none;endArrow=block;exitX=0.5;exitY=0;entryX=0.65;entryY=0.99;rounded=0;" edge="1" parent="1" source="9ghfEsz9j9PmfKLz80zD-4" target="9ghfEsz9j9PmfKLz80zD-3">
          <mxGeometry relative="1" as="geometry">
            <Array as="points">
              <mxPoint x="-259" y="499" />
            </Array>
          </mxGeometry>
        </mxCell>
        <mxCell id="9ghfEsz9j9PmfKLz80zD-14" value="HTTP Response" style="curved=1;startArrow=none;endArrow=block;exitX=0.69;exitY=0;entryX=0.86;entryY=0.99;rounded=0;" edge="1" parent="1" source="9ghfEsz9j9PmfKLz80zD-3" target="9ghfEsz9j9PmfKLz80zD-2">
          <mxGeometry relative="1" as="geometry">
            <Array as="points">
              <mxPoint x="-249" y="397" />
            </Array>
          </mxGeometry>
        </mxCell>
        <mxCell id="9ghfEsz9j9PmfKLz80zD-15" value="&lt;b&gt;&lt;u&gt;Lambda-docker-based Approach&lt;/u&gt;&lt;/b&gt;" style="text;html=1;align=center;verticalAlign=middle;whiteSpace=wrap;rounded=0;" vertex="1" parent="1">
          <mxGeometry x="-440" y="220" width="280" height="30" as="geometry" />
        </mxCell>
        <mxCell id="Xmr0FsYkJQar29AQHcIX-1" value="&lt;h1 style=&quot;margin-top: 0px;&quot;&gt;&lt;span style=&quot;background-color: initial; font-size: 12px; font-weight: normal;&quot;&gt;Lambda with Docker:&lt;/span&gt;&lt;br&gt;&lt;/h1&gt;&lt;p&gt;&lt;br&gt;&lt;/p&gt;&lt;ol depth=&quot;0&quot; class=&quot;-mt-1 list-decimal space-y-2 pl-8&quot;&gt;&lt;br&gt;&lt;li class=&quot;whitespace-normal break-words&quot;&gt;Lambda Container Support:&lt;br&gt;&lt;ul depth=&quot;1&quot; class=&quot;-mt-1 list-disc space-y-2 pl-8&quot;&gt;&lt;br&gt;&lt;li class=&quot;whitespace-normal break-words&quot;&gt;AWS introduced Docker container support for Lambda in December 2020.&lt;/li&gt;&lt;br&gt;&lt;li class=&quot;whitespace-normal break-words&quot;&gt;Allows you to deploy Lambda functions as container images up to 10GB in size.&lt;/li&gt;&lt;br&gt;&lt;/ul&gt;&lt;br&gt;&lt;/li&gt;&lt;br&gt;&lt;li class=&quot;whitespace-normal break-words&quot;&gt;How it works:&lt;br&gt;&lt;ul depth=&quot;1&quot; class=&quot;-mt-1 list-disc space-y-2 pl-8&quot;&gt;&lt;br&gt;&lt;li class=&quot;whitespace-normal break-words&quot;&gt;Package Lambda function code and dependencies as a Docker container image.&lt;/li&gt;&lt;br&gt;&lt;li class=&quot;whitespace-normal break-words&quot;&gt;The container image is stored in Amazon Elastic Container Registry (ECR).&lt;/li&gt;&lt;br&gt;&lt;li class=&quot;whitespace-normal break-words&quot;&gt;Lambda can execute functions from these container images.&lt;/li&gt;&lt;br&gt;&lt;/ul&gt;&lt;br&gt;&lt;/li&gt;&lt;br&gt;&lt;li class=&quot;whitespace-normal break-words&quot;&gt;Benefits:&lt;br&gt;&lt;ul depth=&quot;1&quot; class=&quot;-mt-1 list-disc space-y-2 pl-8&quot;&gt;&lt;br&gt;&lt;li class=&quot;whitespace-normal break-words&quot;&gt;Larger deployment package size (up to 10GB vs 250MB for zip files).&lt;/li&gt;&lt;br&gt;&lt;li class=&quot;whitespace-normal break-words&quot;&gt;More control over the runtime environment.&lt;/li&gt;&lt;br&gt;&lt;li class=&quot;whitespace-normal break-words&quot;&gt;Ability to use custom runtimes more easily.&lt;/li&gt;&lt;br&gt;&lt;li class=&quot;whitespace-normal break-words&quot;&gt;&lt;b&gt;Consistency between local development and cloud execution environments.&lt;/b&gt;&lt;/li&gt;&lt;/ul&gt;&lt;/li&gt;&lt;/ol&gt;" style="text;html=1;whiteSpace=wrap;overflow=hidden;rounded=0;" vertex="1" parent="1">
          <mxGeometry x="-830" y="20" width="390" height="688" as="geometry" />
        </mxCell>
      </root>
    </mxGraphModel>
  </diagram>
  <diagram id="MO6twhhZaJchFNYuVR3n" name="docker-s3/ecr">
    <mxGraphModel dx="1193" dy="698" grid="0" gridSize="10" guides="1" tooltips="1" connect="1" arrows="1" fold="1" page="1" pageScale="1" pageWidth="850" pageHeight="1100" math="0" shadow="0">
      <root>
        <mxCell id="0" />
        <mxCell id="1" parent="0" />
        <mxCell id="EpPdqME3AX64z2tE2Kjt-1" value="Docker Build" style="whiteSpace=wrap;strokeWidth=2;" vertex="1" parent="1">
          <mxGeometry x="478" y="328" width="105" height="34" as="geometry" />
        </mxCell>
        <mxCell id="EpPdqME3AX64z2tE2Kjt-2" value="Storage Choice" style="rhombus;strokeWidth=2;whiteSpace=wrap;" vertex="1" parent="1">
          <mxGeometry x="453" y="430" width="155" height="155" as="geometry" />
        </mxCell>
        <mxCell id="EpPdqME3AX64z2tE2Kjt-3" value="Elastic Container Registry" style="whiteSpace=wrap;strokeWidth=2;" vertex="1" parent="1">
          <mxGeometry x="312" y="654" width="199" height="34" as="geometry" />
        </mxCell>
        <mxCell id="EpPdqME3AX64z2tE2Kjt-4" value="Simple Storage Service" style="whiteSpace=wrap;strokeWidth=2;" vertex="1" parent="1">
          <mxGeometry x="561" y="654" width="178" height="34" as="geometry" />
        </mxCell>
        <mxCell id="EpPdqME3AX64z2tE2Kjt-5" value="ECS/EKS/Lambda" style="whiteSpace=wrap;strokeWidth=2;" vertex="1" parent="1">
          <mxGeometry x="342" y="756" width="139" height="34" as="geometry" />
        </mxCell>
        <mxCell id="EpPdqME3AX64z2tE2Kjt-6" value="Custom Deployment Process" style="whiteSpace=wrap;strokeWidth=2;" vertex="1" parent="1">
          <mxGeometry x="542" y="756" width="216" height="34" as="geometry" />
        </mxCell>
        <mxCell id="EpPdqME3AX64z2tE2Kjt-7" value="Application" style="whiteSpace=wrap;strokeWidth=2;" vertex="1" parent="1">
          <mxGeometry x="482" y="858" width="97" height="34" as="geometry" />
        </mxCell>
        <mxCell id="EpPdqME3AX64z2tE2Kjt-8" value="Push Image" style="curved=1;startArrow=none;endArrow=block;exitX=0.5;exitY=0.99;entryX=0.5;entryY=0;rounded=0;" edge="1" parent="1" source="EpPdqME3AX64z2tE2Kjt-1" target="EpPdqME3AX64z2tE2Kjt-2">
          <mxGeometry relative="1" as="geometry">
            <Array as="points" />
          </mxGeometry>
        </mxCell>
        <mxCell id="EpPdqME3AX64z2tE2Kjt-9" value="ECR" style="curved=1;startArrow=none;endArrow=block;exitX=0;exitY=0.97;entryX=0.5;entryY=0;rounded=0;" edge="1" parent="1" source="EpPdqME3AX64z2tE2Kjt-2" target="EpPdqME3AX64z2tE2Kjt-3">
          <mxGeometry relative="1" as="geometry">
            <Array as="points">
              <mxPoint x="411" y="620" />
            </Array>
          </mxGeometry>
        </mxCell>
        <mxCell id="EpPdqME3AX64z2tE2Kjt-10" value="S3" style="curved=1;startArrow=none;endArrow=block;exitX=1;exitY=0.97;entryX=0.5;entryY=0;rounded=0;" edge="1" parent="1" source="EpPdqME3AX64z2tE2Kjt-2" target="EpPdqME3AX64z2tE2Kjt-4">
          <mxGeometry relative="1" as="geometry">
            <Array as="points">
              <mxPoint x="650" y="620" />
            </Array>
          </mxGeometry>
        </mxCell>
        <mxCell id="EpPdqME3AX64z2tE2Kjt-11" value="Pull Image" style="curved=1;startArrow=none;endArrow=block;exitX=0.5;exitY=0.98;entryX=0.5;entryY=0;rounded=0;" edge="1" parent="1" source="EpPdqME3AX64z2tE2Kjt-3" target="EpPdqME3AX64z2tE2Kjt-5">
          <mxGeometry relative="1" as="geometry">
            <Array as="points" />
          </mxGeometry>
        </mxCell>
        <mxCell id="EpPdqME3AX64z2tE2Kjt-12" value="Custom Pull Process" style="curved=1;startArrow=none;endArrow=block;exitX=0.5;exitY=0.98;entryX=0.5;entryY=0;rounded=0;" edge="1" parent="1" source="EpPdqME3AX64z2tE2Kjt-4" target="EpPdqME3AX64z2tE2Kjt-6">
          <mxGeometry relative="1" as="geometry">
            <Array as="points" />
          </mxGeometry>
        </mxCell>
        <mxCell id="EpPdqME3AX64z2tE2Kjt-13" value="Deploy" style="curved=1;startArrow=none;endArrow=block;exitX=0.5;exitY=0.98;entryX=0.1;entryY=0;rounded=0;" edge="1" parent="1" source="EpPdqME3AX64z2tE2Kjt-5" target="EpPdqME3AX64z2tE2Kjt-7">
          <mxGeometry relative="1" as="geometry">
            <Array as="points">
              <mxPoint x="411" y="824" />
            </Array>
          </mxGeometry>
        </mxCell>
        <mxCell id="EpPdqME3AX64z2tE2Kjt-14" value="Deploy" style="curved=1;startArrow=none;endArrow=block;exitX=0.5;exitY=0.98;entryX=0.9;entryY=0;rounded=0;" edge="1" parent="1" source="EpPdqME3AX64z2tE2Kjt-6" target="EpPdqME3AX64z2tE2Kjt-7">
          <mxGeometry relative="1" as="geometry">
            <Array as="points">
              <mxPoint x="650" y="824" />
            </Array>
          </mxGeometry>
        </mxCell>
        <mxCell id="EpPdqME3AX64z2tE2Kjt-16" value="&lt;b&gt;&lt;u&gt;docker s3 or ecr&lt;/u&gt;&lt;/b&gt;" style="text;html=1;align=center;verticalAlign=middle;whiteSpace=wrap;rounded=0;" vertex="1" parent="1">
          <mxGeometry x="415.5" y="250" width="230" height="30" as="geometry" />
        </mxCell>
        <mxCell id="gtoaIhzBS3mS9o4jH_XR-1" value="Incoming Request" style="whiteSpace=wrap;strokeWidth=2;" vertex="1" parent="1">
          <mxGeometry x="570" y="1200" width="141" height="34" as="geometry" />
        </mxCell>
        <mxCell id="gtoaIhzBS3mS9o4jH_XR-2" value="Execution Type" style="rhombus;strokeWidth=2;whiteSpace=wrap;" vertex="1" parent="1">
          <mxGeometry x="563" y="1284" width="156" height="156" as="geometry" />
        </mxCell>
        <mxCell id="gtoaIhzBS3mS9o4jH_XR-3" value="Lambda Service" style="whiteSpace=wrap;strokeWidth=2;" vertex="1" parent="1">
          <mxGeometry x="457" y="1610" width="128" height="34" as="geometry" />
        </mxCell>
        <mxCell id="gtoaIhzBS3mS9o4jH_XR-4" value="ECS" style="whiteSpace=wrap;strokeWidth=2;" vertex="1" parent="1">
          <mxGeometry x="741" y="1508" width="41" height="34" as="geometry" />
        </mxCell>
        <mxCell id="gtoaIhzBS3mS9o4jH_XR-5" value="Lambda Execution Environment" style="whiteSpace=wrap;strokeWidth=2;" vertex="1" parent="1">
          <mxGeometry x="400" y="1712" width="241" height="34" as="geometry" />
        </mxCell>
        <mxCell id="gtoaIhzBS3mS9o4jH_XR-6" value="EC2/Fargate" style="whiteSpace=wrap;strokeWidth=2;" vertex="1" parent="1">
          <mxGeometry x="709" y="1610" width="104" height="34" as="geometry" />
        </mxCell>
        <mxCell id="gtoaIhzBS3mS9o4jH_XR-7" value="Docker Container" style="whiteSpace=wrap;strokeWidth=2;" vertex="1" parent="1">
          <mxGeometry x="691" y="1712" width="139" height="34" as="geometry" />
        </mxCell>
        <mxCell id="gtoaIhzBS3mS9o4jH_XR-8" value="Function Code" style="whiteSpace=wrap;strokeWidth=2;" vertex="1" parent="1">
          <mxGeometry x="462" y="1814" width="118" height="34" as="geometry" />
        </mxCell>
        <mxCell id="gtoaIhzBS3mS9o4jH_XR-9" value="Application Code" style="whiteSpace=wrap;strokeWidth=2;" vertex="1" parent="1">
          <mxGeometry x="692" y="1814" width="137" height="34" as="geometry" />
        </mxCell>
        <mxCell id="gtoaIhzBS3mS9o4jH_XR-10" value="Response" style="whiteSpace=wrap;strokeWidth=2;" vertex="1" parent="1">
          <mxGeometry x="601" y="1898" width="80" height="34" as="geometry" />
        </mxCell>
        <mxCell id="gtoaIhzBS3mS9o4jH_XR-11" value="" style="curved=1;startArrow=none;endArrow=block;exitX=0.5;exitY=0.99;entryX=0.5;entryY=0;rounded=0;" edge="1" parent="1" source="gtoaIhzBS3mS9o4jH_XR-1" target="gtoaIhzBS3mS9o4jH_XR-2">
          <mxGeometry relative="1" as="geometry">
            <Array as="points" />
          </mxGeometry>
        </mxCell>
        <mxCell id="gtoaIhzBS3mS9o4jH_XR-12" value="Lambda" style="curved=1;startArrow=none;endArrow=block;exitX=0;exitY=0.97;entryX=0.5;entryY=0.01;rounded=0;" edge="1" parent="1" source="gtoaIhzBS3mS9o4jH_XR-2" target="gtoaIhzBS3mS9o4jH_XR-3">
          <mxGeometry relative="1" as="geometry">
            <Array as="points">
              <mxPoint x="521" y="1474" />
            </Array>
          </mxGeometry>
        </mxCell>
        <mxCell id="gtoaIhzBS3mS9o4jH_XR-13" value="Docker" style="curved=1;startArrow=none;endArrow=block;exitX=1;exitY=0.97;entryX=0.49;entryY=0.01;rounded=0;" edge="1" parent="1" source="gtoaIhzBS3mS9o4jH_XR-2" target="gtoaIhzBS3mS9o4jH_XR-4">
          <mxGeometry relative="1" as="geometry">
            <Array as="points">
              <mxPoint x="761" y="1474" />
            </Array>
          </mxGeometry>
        </mxCell>
        <mxCell id="gtoaIhzBS3mS9o4jH_XR-14" value="Instantiate" style="curved=1;startArrow=none;endArrow=block;exitX=0.5;exitY=0.99;entryX=0.5;entryY=0.01;rounded=0;" edge="1" parent="1" source="gtoaIhzBS3mS9o4jH_XR-3" target="gtoaIhzBS3mS9o4jH_XR-5">
          <mxGeometry relative="1" as="geometry">
            <Array as="points" />
          </mxGeometry>
        </mxCell>
        <mxCell id="gtoaIhzBS3mS9o4jH_XR-15" value="Schedule" style="curved=1;startArrow=none;endArrow=block;exitX=0.49;exitY=0.99;entryX=0.5;entryY=0.01;rounded=0;" edge="1" parent="1" source="gtoaIhzBS3mS9o4jH_XR-4" target="gtoaIhzBS3mS9o4jH_XR-6">
          <mxGeometry relative="1" as="geometry">
            <Array as="points" />
          </mxGeometry>
        </mxCell>
        <mxCell id="gtoaIhzBS3mS9o4jH_XR-16" value="Run" style="curved=1;startArrow=none;endArrow=block;exitX=0.5;exitY=0.99;entryX=0.5;entryY=0.01;rounded=0;" edge="1" parent="1" source="gtoaIhzBS3mS9o4jH_XR-6" target="gtoaIhzBS3mS9o4jH_XR-7">
          <mxGeometry relative="1" as="geometry">
            <Array as="points" />
          </mxGeometry>
        </mxCell>
        <mxCell id="gtoaIhzBS3mS9o4jH_XR-17" value="Execute" style="curved=1;startArrow=none;endArrow=block;exitX=0.5;exitY=0.99;entryX=0.5;entryY=0.01;rounded=0;" edge="1" parent="1" source="gtoaIhzBS3mS9o4jH_XR-5" target="gtoaIhzBS3mS9o4jH_XR-8">
          <mxGeometry relative="1" as="geometry">
            <Array as="points" />
          </mxGeometry>
        </mxCell>
        <mxCell id="gtoaIhzBS3mS9o4jH_XR-18" value="Execute" style="curved=1;startArrow=none;endArrow=block;exitX=0.5;exitY=0.99;entryX=0.5;entryY=0.01;rounded=0;" edge="1" parent="1" source="gtoaIhzBS3mS9o4jH_XR-7" target="gtoaIhzBS3mS9o4jH_XR-9">
          <mxGeometry relative="1" as="geometry">
            <Array as="points" />
          </mxGeometry>
        </mxCell>
        <mxCell id="gtoaIhzBS3mS9o4jH_XR-19" value="" style="curved=1;startArrow=none;endArrow=block;exitX=0.5;exitY=0.99;entryX=0;entryY=0.07;rounded=0;" edge="1" parent="1" source="gtoaIhzBS3mS9o4jH_XR-8" target="gtoaIhzBS3mS9o4jH_XR-10">
          <mxGeometry relative="1" as="geometry">
            <Array as="points">
              <mxPoint x="521" y="1873" />
            </Array>
          </mxGeometry>
        </mxCell>
        <mxCell id="gtoaIhzBS3mS9o4jH_XR-20" value="" style="curved=1;startArrow=none;endArrow=block;exitX=0.5;exitY=0.99;entryX=1;entryY=0.07;rounded=0;" edge="1" parent="1" source="gtoaIhzBS3mS9o4jH_XR-9" target="gtoaIhzBS3mS9o4jH_XR-10">
          <mxGeometry relative="1" as="geometry">
            <Array as="points">
              <mxPoint x="761" y="1873" />
            </Array>
          </mxGeometry>
        </mxCell>
        <mxCell id="gtoaIhzBS3mS9o4jH_XR-21" value="&lt;li class=&quot;whitespace-normal break-words&quot;&gt;Lambda Function Execution:&lt;br&gt;&lt;ul depth=&quot;1&quot; class=&quot;-mt-1 list-disc space-y-2 pl-8&quot;&gt;&lt;br&gt;&lt;li class=&quot;whitespace-normal break-words&quot;&gt;Serverless Model: Lambda is a fully managed serverless compute service. You don&#39;t need to provision or manage any servers.&lt;/li&gt;&lt;br&gt;&lt;li class=&quot;whitespace-normal break-words&quot;&gt;Execution Environment: When a Lambda function is invoked, AWS instantiates a container with your function code and any necessary runtime.&lt;/li&gt;&lt;br&gt;&lt;li class=&quot;whitespace-normal break-words&quot;&gt;Cold Starts: The first invocation (or after a period of inactivity) might experience a &quot;cold start&quot; as the container is prepared.&lt;/li&gt;&lt;br&gt;&lt;li class=&quot;whitespace-normal break-words&quot;&gt;Scaling: AWS automatically scales the number of execution environments based on the number of incoming requests.&lt;/li&gt;&lt;br&gt;&lt;li class=&quot;whitespace-normal break-words&quot;&gt;Resource Allocation: You specify memory allocation (128MB to 10GB), and CPU is allocated proportionally.&lt;/li&gt;&lt;br&gt;&lt;li class=&quot;whitespace-normal break-words&quot;&gt;Execution Duration: Limited to a maximum of 15 minutes per invocation.&lt;/li&gt;&lt;br&gt;&lt;li class=&quot;whitespace-normal break-words&quot;&gt;Statelessness: Each invocation runs in a fresh environment. Any state must be stored externally (e.g., in S3 or DynamoDB).&lt;/li&gt;&lt;br&gt;&lt;/ul&gt;&lt;br&gt;&lt;/li&gt;&lt;br&gt;&lt;li class=&quot;whitespace-normal break-words&quot;&gt;Docker Container Execution (on ECS with EC2 or Fargate):&lt;br&gt;&lt;ul depth=&quot;1&quot; class=&quot;-mt-1 list-disc space-y-2 pl-8&quot;&gt;&lt;br&gt;&lt;li class=&quot;whitespace-normal break-words&quot;&gt;Container Orchestration: ECS manages the deployment, scheduling, and scaling of your Docker containers.&lt;/li&gt;&lt;br&gt;&lt;li class=&quot;whitespace-normal break-words&quot;&gt;EC2 Launch Type:&lt;br&gt;&lt;ul depth=&quot;2&quot; class=&quot;-mt-1 list-disc space-y-2 pl-8&quot;&gt;&lt;br&gt;&lt;li class=&quot;whitespace-normal break-words&quot;&gt;You manage a cluster of EC2 instances where containers run.&lt;/li&gt;&lt;br&gt;&lt;li class=&quot;whitespace-normal break-words&quot;&gt;ECS handles placement of containers on these instances.&lt;/li&gt;&lt;br&gt;&lt;li class=&quot;whitespace-normal break-words&quot;&gt;You&#39;re responsible for scaling and maintaining the EC2 instances.&lt;/li&gt;&lt;br&gt;&lt;/ul&gt;&lt;br&gt;&lt;/li&gt;&lt;br&gt;&lt;li class=&quot;whitespace-normal break-words&quot;&gt;Fargate Launch Type:&lt;br&gt;&lt;ul depth=&quot;2&quot; class=&quot;-mt-1 list-disc space-y-2 pl-8&quot;&gt;&lt;br&gt;&lt;li class=&quot;whitespace-normal break-words&quot;&gt;Serverless option where AWS manages the underlying infrastructure.&lt;/li&gt;&lt;br&gt;&lt;li class=&quot;whitespace-normal break-words&quot;&gt;You don&#39;t need to provision or manage EC2 instances.&lt;/li&gt;&lt;br&gt;&lt;/ul&gt;&lt;br&gt;&lt;/li&gt;&lt;br&gt;&lt;li class=&quot;whitespace-normal break-words&quot;&gt;Long-Running Processes: Containers can run indefinitely, unlike Lambda&#39;s 15-minute limit.&lt;/li&gt;&lt;br&gt;&lt;li class=&quot;whitespace-normal break-words&quot;&gt;Resource Allocation: You specify CPU and memory requirements for your containers.&lt;/li&gt;&lt;br&gt;&lt;li class=&quot;whitespace-normal break-words&quot;&gt;Scaling:&lt;br&gt;&lt;ul depth=&quot;2&quot; class=&quot;-mt-1 list-disc space-y-2 pl-8&quot;&gt;&lt;br&gt;&lt;li class=&quot;whitespace-normal break-words&quot;&gt;EC2: You manage instance scaling, ECS manages container scaling.&lt;/li&gt;&lt;br&gt;&lt;li class=&quot;whitespace-normal break-words&quot;&gt;Fargate: AWS handles scaling of both infrastructure and containers.&lt;/li&gt;&lt;br&gt;&lt;/ul&gt;&lt;br&gt;&lt;/li&gt;&lt;br&gt;&lt;li class=&quot;whitespace-normal break-words&quot;&gt;State: Containers can maintain state between requests, but it&#39;s generally advisable to design for statelessness.&lt;/li&gt;&lt;/ul&gt;&lt;/li&gt;" style="text;html=1;align=left;verticalAlign=middle;whiteSpace=wrap;rounded=0;" vertex="1" parent="1">
          <mxGeometry x="10" y="1120" width="430" height="1050" as="geometry" />
        </mxCell>
      </root>
    </mxGraphModel>
  </diagram>
</mxfile>
